<?xml version="1.0" encoding="UTF-8"?>
<svg id="Layer_1" data-name="Layer 1" xmlns="http://www.w3.org/2000/svg" viewBox="0 0 1000 350">
  <defs>
    <style>
      .cls-1 {
        fill: #f15a22;
      }

      .cls-2 {
        fill: #1341c7;
      }
    </style>
  </defs>
  <polygon class="cls-2" points="394.99 215.75 370.46 156.5 389.94 156.5 405.78 198.99 421.63 156.5 440.68 156.5 416.15 215.75 394.99 215.75"/>
  <polygon class="cls-2" points="448.09 215.75 448.09 156.5 500.52 156.5 500.52 169.87 465.46 169.87 465.46 178.91 498.75 178.91 498.75 192.27 465.46 192.27 465.46 202.39 502.54 202.39 500.85 215.75 448.09 215.75"/>
  <polygon class="cls-2" points="567.02 215.75 536.51 179.74 536.51 215.75 519.65 215.75 519.65 156.5 535.33 156.5 565.84 192.52 565.84 156.5 582.69 156.5 582.69 215.75 567.02 215.75"/>
  <polygon class="cls-2" points="650.63 215.75 620.11 179.74 620.11 215.75 603.26 215.75 603.26 156.5 618.94 156.5 649.45 192.52 649.45 156.5 666.3 156.5 666.3 215.75 650.63 215.75"/>
  <polygon class="cls-2" points="704.82 189.7 704.82 215.75 696.48 215.75 696.48 156.51 742.07 156.51 742.07 163.72 704.82 163.72 704.82 182.48 740.13 182.48 740.13 189.7 704.82 189.7"/>
  <path class="cls-2" d="M787.08,184.63c10.23,0,15.34-3.51,15.34-10.53,0-3.71-1.21-6.36-3.62-8s-6.27-2.4-11.55-2.4h-19.25v20.9l19.08.03ZM804.7,215.75l-13.91-24c-.62.06-1.94.08-4,.08h-18.79v23.9h-8.18v-59.23h28.07c15.51,0,23.26,5.92,23.26,17.76,0,8.08-3.96,13.36-11.88,15.85l15.08,25.64h-9.65Z"/>
  <path class="cls-2" d="M884.6,186.13c0-7.52-2.19-13.37-6.58-17.55-4.39-4.18-10.51-6.27-18.37-6.26-7.81,0-13.92,2.1-18.33,6.3-4.41,4.2-6.62,10.04-6.62,17.51s2.19,13.37,6.57,17.55c4.38,4.18,10.51,6.27,18.38,6.26,7.81,0,13.92-2.1,18.33-6.3,4.41-4.2,6.61-10.04,6.62-17.51M893.28,186.13c.13,5.67-1.25,11.27-4,16.22-2.73,4.73-6.79,8.56-11.67,11-5.56,2.74-11.71,4.09-17.91,3.95-6.05.12-12.05-1.14-17.53-3.7-4.92-2.33-9.04-6.07-11.85-10.74-5.6-10.24-5.67-22.6-.2-32.9,2.71-4.71,6.76-8.53,11.62-10.96,5.56-2.76,11.7-4.13,17.91-4,6.05-.12,12.04,1.14,17.53,3.69,4.91,2.35,9.02,6.09,11.82,10.76,2.93,5.06,4.4,10.83,4.26,16.68"/>
  <path class="cls-2" d="M958.93,192.19h-19.8v-7.06h27.65v23.87c-3.81,2.74-8.08,4.77-12.61,6-5.08,1.47-10.34,2.21-15.63,2.2-6.14.13-12.24-1.11-17.83-3.65-4.9-2.26-9.01-5.94-11.8-10.55-2.88-5.05-4.33-10.79-4.17-16.6-.11-5.72,1.27-11.36,4-16.39,2.64-4.71,6.61-8.54,11.42-11,5.46-2.76,11.51-4.13,17.62-4.01,7.02,0,12.89,1.45,17.61,4.36,4.73,2.89,8.28,7.38,10,12.65l-8.26,1.42c-1.32-3.54-3.84-6.51-7.12-8.39-3.23-1.82-7.38-2.73-12.43-2.74-7.54,0-13.44,2.12-17.71,6.35-4.27,4.23-6.4,10.11-6.4,17.64s2.22,13.27,6.66,17.42c4.44,4.15,10.65,6.23,18.62,6.22,8.1,0,14.84-1.44,20.23-4.31l-.05-13.43Z"/>
  <path class="cls-2" d="M265.21,256.4c.86-1,1.73-2.06,2.57-3.13,12.62-16.1,21.19-34.98,25-55.08-9.01,32.04-42.28,50.71-74.32,41.7-21.64-6.08-38.09-23.7-42.68-45.7-.66.2-1.34.35-2,.58h0c-.66.21-1.36.45-2,.69-9.16,3.4-15.74,8.91-16.73,15.17-.08.49-.14,1-.18,1.5-.56,6.48,1.68,13.73,6.49,20.35,3.75,5.16,8.8,8.15,14.43,10.4,5.98,2.37,10.42,7.53,11.86,13.8,2.3,10.15-4.06,20.25-14.21,22.56-.15.03-.29.06-.44.09-10.49,2.1-20.75-4.51-23.18-14.93-.27-1.39-.39-2.81-.37-4.23-.22-8.78-1-17-4-22.87-2.41-4.88-5.87-9.17-10.12-12.57-.8-.65-1.63-1.28-2.5-1.89-10.25-7.2-26-12.6-51.1-4.66-5.06,1.6-10.68,3.71-17.19,6.39-2.69,1.11-5.27,2.6-7.9,3.91-.83.41-1.65.8-2.47,1.23-2.58.96-5.3,1.48-8.05,1.54,8.86,18.12,21.88,33.88,38,46,56.16,42.42,136.33,32.84,181.08-20.89"/>
  <path class="cls-2" d="M227,122.12c32.98-4.31,63.21,18.91,67.55,51.88.21,1.58.34,3.14.42,4.7,1.37-41.51-17.61-81.08-50.83-106-1.08-.82-2.19-1.58-3.29-2.36-57.07-40.41-137-29-180.35,26.39-20.13,25.56-29.71,57.87-26.75,90.27.54-.28,1.08-.56,1.64-.8,1-.25,2-.52,2.9-.75,12.1-3,22.18-4.91,32.39-9.08,12-4.9,22.8-12,27.59-22.89.74-1.68,1.32-3.43,1.73-5.22,2.16-9.17.09-14.78-5.64-21.11-1.7-1.92-2.88-4.25-3.42-6.76-1.79-7.95,3.21-15.85,11.16-17.64.14-.03.28-.06.42-.09,8.22-1.68,16.28,3.47,18.21,11.63,1.48,6.59-.9,9.39-2.86,13.79-1.26,2.83-2.43,7.51-1.85,11.15.64,3.82,3.06,7.11,6.51,8.87h0c.29.17.59.35.9.5,10.21,4.88,20.49-2.53,29.15-10.52h0c.64-.58,1.17-1.22,1.78-1.8,3.16-3.03,6.07-6.32,8.7-9.82,4.92-6.51,9.31-14.5,9.77-23.83.21-8.01,5.91-14.82,13.75-16.44,9.6-1.97,19.02,4.05,21.27,13.59,1.97,8.86-3.28,17.73-12,20.26-6.58,2-13.39,6.09-19.87,13.25-3.43,3.79-6.19,8.15-8.16,12.87-.38.94-.7,1.87-1,2.79-2.57,8.75-.08,16.19,3.92,19.3,1.46,1.05,3.07,1.88,4.78,2.46h.05c4.83-25.61,25.56-45.22,51.4-48.6"/>
  <path class="cls-1" d="M242.63,241.57c23.9-3.12,43.64-20.18,50.18-43.38,1.24-6.42,1.97-12.93,2.19-19.46-.08-1.56-.2-3.12-.41-4.7-4.27-33.01-34.49-56.3-67.5-52.02-25.91,3.35-46.71,23.03-51.5,48.71,6.9,2.51,17.74,3.35,29,1.51,3.14-.53,6.26-1.22,9.33-2.07,5.53-1.51,10.85-3.57,14.91-6.62,2.66-1.99,5.74-3.35,9-4,12.06-2.47,23.9,5.1,26.71,17.08,2.62,11.67-4.71,23.25-16.38,25.87-.21.05-.41.09-.62.13-6.36,1.31-12.98-.22-18.12-4.19-3.05-2.32-6.46-4.12-10.09-5.33-6.42-2.16-13.9-2.78-23.11-2.38-6.91.29-13.76,1.44-20.39,3.43,6.44,30.84,35.56,51.5,66.79,47.41"/>
</svg>