<?xml version="1.0" encoding="UTF-8"?>
<svg id="Layer_2" data-name="Layer 2" xmlns="http://www.w3.org/2000/svg" viewBox="0 0 261.82 257.54">
  <defs>
    <style>
      .cls-1 {
        fill: #f15a22;
      }

      .cls-2 {
        fill: #1341c7;
      }
    </style>
  </defs>
  <g id="Layer_1-2" data-name="Layer 1">
    <path class="cls-2" d="M231.99,210.18c.86-1,1.73-2.06,2.57-3.13,12.62-16.1,21.19-34.98,25-55.08-9.01,32.04-42.28,50.71-74.32,41.7-21.64-6.08-38.09-23.7-42.68-45.7-.66.2-1.34.35-2,.58h0c-.66.21-1.36.45-2,.69-9.16,3.4-15.74,8.91-16.73,15.17-.08.49-.14,1-.18,1.5-.56,6.48,1.68,13.73,6.49,20.35,3.75,5.16,8.8,8.15,14.43,10.4,5.98,2.37,10.42,7.53,11.86,13.8,2.3,10.15-4.06,20.25-14.21,22.56-.15.03-.29.06-.44.09-10.49,2.1-20.75-4.51-23.18-14.93-.27-1.39-.39-2.81-.37-4.23-.22-8.78-1-17-4-22.87-2.41-4.88-5.87-9.17-10.12-12.57-.8-.65-1.63-1.28-2.5-1.89-10.25-7.2-26-12.6-51.1-4.66-5.06,1.6-10.68,3.71-17.19,6.39-2.69,1.11-5.27,2.6-7.9,3.91-.83.41-1.65.8-2.47,1.23-2.58.96-5.3,1.48-8.05,1.54,8.86,18.12,21.88,33.88,38,46,56.16,42.42,136.33,32.84,181.08-20.89"/>
    <path class="cls-2" d="M193.78,75.9c32.98-4.31,63.21,18.91,67.55,51.88.21,1.58.34,3.14.42,4.7,1.37-41.51-17.61-81.08-50.83-106-1.08-.82-2.19-1.58-3.29-2.36C150.56-16.29,70.63-4.88,27.28,50.51,7.15,76.07-2.43,108.38.53,140.78c.54-.28,1.08-.56,1.64-.8,1-.25,2-.52,2.9-.75,12.1-3,22.18-4.91,32.39-9.08,12-4.9,22.8-12,27.59-22.89.74-1.68,1.32-3.43,1.73-5.22,2.16-9.17.09-14.78-5.64-21.11-1.7-1.92-2.88-4.25-3.42-6.76-1.79-7.95,3.21-15.85,11.16-17.64l.42-.09c8.22-1.68,16.28,3.47,18.21,11.63,1.48,6.59-.9,9.39-2.86,13.79-1.26,2.83-2.43,7.51-1.85,11.15.64,3.82,3.06,7.11,6.51,8.87h0c.29.17.59.35.9.5,10.21,4.88,20.49-2.53,29.15-10.52h0c.64-.58,1.17-1.22,1.78-1.8,3.16-3.03,6.07-6.32,8.7-9.82,4.92-6.51,9.31-14.5,9.77-23.83.21-8.01,5.91-14.82,13.75-16.44,9.6-1.97,19.02,4.05,21.27,13.59,1.97,8.86-3.28,17.73-12,20.26-6.58,2-13.39,6.09-19.87,13.25-3.43,3.79-6.19,8.15-8.16,12.87-.38.94-.7,1.87-1,2.79-2.57,8.75-.08,16.19,3.92,19.3,1.46,1.05,3.07,1.88,4.78,2.46h.05c4.83-25.61,25.56-45.22,51.4-48.6"/>
    <path class="cls-1" d="M209.41,195.35c23.9-3.12,43.64-20.18,50.18-43.38,1.24-6.42,1.97-12.93,2.19-19.46-.08-1.56-.2-3.12-.41-4.7-4.27-33.01-34.49-56.3-67.5-52.02-25.91,3.35-46.71,23.03-51.5,48.71,6.9,2.51,17.74,3.35,29,1.51,3.14-.53,6.26-1.22,9.33-2.07,5.53-1.51,10.85-3.57,14.91-6.62,2.66-1.99,5.74-3.35,9-4,12.06-2.47,23.9,5.1,26.71,17.08,2.62,11.67-4.71,23.25-16.38,25.87-.21.05-.41.09-.62.13-6.36,1.31-12.98-.22-18.12-4.19-3.05-2.32-6.46-4.12-10.09-5.33-6.42-2.16-13.9-2.78-23.11-2.38-6.91.29-13.76,1.44-20.39,3.43,6.44,30.84,35.56,51.5,66.79,47.41"/>
  </g>
</svg>